<svg xmlns="http://www.w3.org/2000/svg" width="195" height="130" fill="none"><path fill="#fff" d="M106.027 48.98c.24 3.36.36 8.76.36 16.2 0 7.32-.12 12.6-.36 15.84-.84 14.28-5.58 25.98-14.2201 35.1-8.52 9.12-21.3 13.68-38.34 13.68-17.04 0-29.88-4.56-38.52-13.68-8.52-9.12-13.2-20.82-14.04-35.1-.24-6.48-.36-11.76-.36-15.84s.12-9.48.36-16.2c.84-14.28 5.52-25.98 14.04-35.1C23.5869 4.76 36.4269.2 53.4669.2c17.04 0 29.82 4.56 38.34 13.68C100.447 23 105.187 34.7 106.027 48.98Zm-33.3001.9c-.36-6.6-1.98-11.7-4.86-15.3-2.88-3.72-7.68-5.58-14.4-5.58-6.72 0-11.52 1.86-14.4 5.58-2.88 3.6-4.5 8.7-4.86 15.3-.24 6.48-.36 11.46-.36 14.94 0 3.24.12 8.34.36 15.3.24 6.6 1.8 11.76 4.68 15.48 3 3.6 7.86 5.4 14.58 5.4s11.52-1.8 14.4-5.4c3-3.72 4.62-8.88 4.86-15.48.24-3.48.36-8.58.36-15.3 0-6.72-.12-11.7-.36-14.94Zm46.5261-7.38c-.6-.72-.9-1.68-.9-2.88 0-1.68.66-3 1.98-3.96l38.7-29.7c.24-.24.84-.72 1.8-1.44 1.08-.72 2.16-1.32 3.24-1.8s2.16-.72 3.24-.72h21.96c1.32 0 2.46.48 3.42 1.44s1.44 2.1 1.44 3.42v116.28c0 1.32-.48 2.46-1.44 3.42s-2.1 1.44-3.42 1.44h-23.58c-1.32 0-2.46-.48-3.42-1.44s-1.44-2.1-1.44-3.42V44.48l-21.42 16.2c-.96.72-1.98 1.08-3.06 1.08-1.56 0-2.82-.66-3.78-1.98l-13.32-17.28Z"/></svg>