<svg xmlns="http://www.w3.org/2000/svg" width="228" height="130" fill="none"><path fill="#fff" d="M105.671 48.98c.24 3.36.36 8.76.36 16.2 0 7.32-.12 12.6-.36 15.84-.84 14.28-5.58 25.98-14.2196 35.1-8.52 9.12-21.3 13.68-38.34 13.68-17.04 0-29.88-4.56-38.52-13.68-8.52-9.12-13.2-20.82-14.04-35.1-.24-6.48-.36-11.76-.36-15.84s.12-9.48.36-16.2c.84-14.28 5.52-25.98 14.04-35.1C23.2314 4.76 36.0714.2 53.1114.2c17.04 0 29.82 4.56 38.34 13.68C100.091 23 104.831 34.7 105.671 48.98Zm-33.2996.9c-.36-6.6-1.98-11.7-4.86-15.3-2.88-3.72-7.68-5.58-14.4-5.58-6.72 0-11.52 1.86-14.4 5.58-2.88 3.6-4.5 8.7-4.86 15.3-.24 6.48-.36 11.46-.36 14.94 0 3.24.12 8.34.36 15.3.24 6.6 1.8 11.76 4.68 15.48 3 3.6 7.86 5.4 14.58 5.4s11.52-1.8 14.4-5.4c3-3.72 4.62-8.88 4.86-15.48.24-3.48.36-8.58.36-15.3 0-6.72-.12-11.7-.36-14.94ZM177.037 99.2h45.18c1.32 0 2.46.48 3.42 1.44s1.44 2.1 1.44 3.42v19.08c0 1.32-.48 2.46-1.44 3.42s-2.1 1.44-3.42 1.44h-95.04c-1.32 0-2.46-.48-3.42-1.44s-1.44-2.1-1.44-3.42v-15.48c0-4.56 1.74-8.1 5.22-10.62l53.82-38.52c3.84-2.88 6.36-5.52 7.56-7.92 1.32-2.52 1.98-5.22 1.98-8.1 0-3-1.08-6-3.24-9-2.04-3-6-4.5-11.88-4.5-4.08 0-7.32.84-9.72 2.52-2.28 1.56-3.78 3.06-4.5 4.5-.6 1.32-1.44 3.42-2.52 6.3-.6 1.56-1.5 2.64-2.7 3.24-1.2.6-2.7.9-4.5.9h-22.14c-1.08 0-2.04-.36-2.88-1.08-.72-.84-1.08-1.8-1.08-2.88.24-7.08 2.22-13.8 5.94-20.16 3.72-6.48 9.3-11.76 16.74-15.84 7.44-4.2 16.5-6.3 27.18-6.3 10.2 0 18.96 1.98 26.28 5.94 7.32 3.84 12.84 9 16.56 15.48 3.84 6.36 5.76 13.32 5.76 20.88 0 7.32-1.68 13.98-5.04 19.98-3.24 5.88-8.88 11.76-16.92 17.64l-25.2 19.08Z"/></svg>