<svg width="31" height="22" viewBox="0 0 31 22" fill="none" xmlns="http://www.w3.org/2000/svg">
<g clip-path="url(#clip0_37601_584)">
<path d="M30.3 7L26.8 7.2L23.6 2.3C23.5 2.1 23.2 2 23 2C22.8 2 22.5 2.1 22.4 2.3L19.2 7.2H15.7C15.3 7.2 15 7.5 15 7.9C15 8 15 8 15 8.1L16.9 14.9C17.1 15.6 17.6 16 18.3 16H27.7C28.4 16 28.9 15.6 29.1 14.9L31 8C31 7.9 31 7.9 31 7.8C31 7.4 30.7 7 30.3 7ZM23 3.9L25.2 7.1H20.9L23 3.9Z" fill="black"/>
</g>
<circle cx="10.5" cy="11" r="10.5" fill="white"/>
<path d="M11.5078 10.348C11.8064 10.0773 12.0211 9.81133 12.1518 9.55C12.2824 9.28867 12.3478 8.95733 12.3478 8.556C12.3478 8.03333 12.1984 7.61333 11.8998 7.296C11.6011 6.97867 11.1484 6.82 10.5418 6.82C9.94445 6.82 9.49645 6.97867 9.19778 7.296C8.89911 7.604 8.68445 8.024 8.55378 8.556C8.52578 8.65867 8.47911 8.738 8.41378 8.794C8.34845 8.85 8.27378 8.878 8.18978 8.878H7.54578C7.46178 8.878 7.38711 8.85 7.32178 8.794C7.26578 8.72867 7.23778 8.654 7.23778 8.57C7.25645 8.094 7.39645 7.62267 7.65778 7.156C7.92845 6.68933 8.31111 6.30667 8.80578 6.008C9.30045 5.70933 9.87911 5.56 10.5418 5.56C11.2044 5.56 11.7691 5.69533 12.2358 5.966C12.7118 6.22733 13.0711 6.58667 13.3138 7.044C13.5564 7.492 13.6778 7.996 13.6778 8.556C13.6778 9.144 13.5751 9.648 13.3698 10.068C13.1738 10.4787 12.8331 10.8987 12.3478 11.328L9.22578 14.24H13.5098C13.6124 14.24 13.7011 14.2773 13.7758 14.352C13.8504 14.4267 13.8878 14.5153 13.8878 14.618V15.122C13.8878 15.2247 13.8504 15.3133 13.7758 15.388C13.7011 15.4627 13.6124 15.5 13.5098 15.5H7.47578C7.37311 15.5 7.28445 15.4627 7.20978 15.388C7.13511 15.3133 7.09778 15.2247 7.09778 15.122V14.618C7.09778 14.5153 7.11645 14.4313 7.15378 14.366C7.20045 14.2913 7.28445 14.198 7.40578 14.086L11.5078 10.348Z" fill="black"/>
<defs>
<clipPath id="clip0_37601_584">
<rect width="16" height="14" fill="white" transform="translate(15 2)"/>
</clipPath>
</defs>
</svg>
