<svg xmlns="http://www.w3.org/2000/svg" width="133" height="70" fill="none"><path fill="#363636" d="M12.0523.258C6.5073.7451 1.8383 1.8506.5753 2.9302c-.7227.6162-.7227.6162-.2324 1.1562.6445.7197 3.7134 1.645 7.2476 2.2363 3.998.668 12.5098.6934 13.7231.0513 1.2119-.668 1.624-1.4136 1.624-2.9814 0-1.6187-.6191-2.416-2.2178-2.8525C19.274.1542 14.9415 0 12.0523.2579ZM25.7745.4883c-.1294.2832-.2583 2.1079-.2583 4.1118 0 4.061.1553 3.7783-2.1919 3.9331l-1.0308.0771-.2583 5.0883-1.1865.2832c-2.5791.668-3.999 2.5952-3.7915 5.2944.1279 1.9272 1.0308 3.3408 2.5786 4.0869 1.1089.5132 1.4697.5381 11.2461.5381 5.5449 0 10.1372.0786 10.1885.1807.0508.1284-1.1094 9.4072-2.5796 20.6387-1.4448 11.2305-2.6831 20.9971-2.7085 21.666-.0513 1.6172.8262 2.6211 2.3477 2.6211 1.2373 0 2.0117-.6416 2.3213-1.9014.1294-.5137 1.4956-10.333 3.0181-21.8213 1.522-11.4629 2.8628-20.8687 2.9404-20.8687.103 0 1.083 1.4131 2.1924 3.1357 2.9399 4.626 2.3989 4.3169 7.6353 4.3169h4.3584v5.6298l-5.1328.0771c-4.7202.0771-5.21.127-5.8813.6152-1.5728 1.1572-1.625 1.415-1.625 10.9766 0 9.5342.0264 9.792 1.5225 11.0498l.8511.6953h31.3652l.8506-.6953c1.4961-1.2578 1.5205-1.5156 1.5205-11.0498 0-9.5615-.0508-9.8193-1.623-10.9766-.6709-.4883-1.1611-.5381-5.8818-.6152l-5.1318-.0771v-5.6298h4.3594c5.2344 0 4.6934.3091 7.6338-4.3169 1.1104-1.7227 2.0898-3.1357 2.1934-3.1357.0762 0 1.4189 9.4058 2.9395 20.8687 1.5225 11.4883 2.8896 21.3076 3.0186 21.8213.3096 1.2598 1.082 1.9014 2.3213 1.9014 1.5215 0 2.3994-1.0039 2.3467-2.6211-.0254-.6689-1.2637-10.4355-2.709-21.666-1.4688-11.2314-2.6309-20.5103-2.5781-20.6387.0508-.1021 4.6416-.1807 10.1893-.1807 9.776 0 10.136-.0249 11.244-.5381 1.548-.7461 2.45-2.1597 2.579-4.0869.207-2.6992-1.211-4.6265-3.791-5.2944l-1.187-.2832-.256-5.0883-1.032-.0771c-2.347-.1548-2.194.1279-2.194-3.9331 0-2.0039-.128-3.8286-.256-4.1118-.207-.36-.543-.4883-1.368-.4883-.619 0-1.238.1284-1.42.3086-.206.2056-.309 1.4653-.309 3.9321 0 2.4673-.103 3.7271-.31 3.9321-.179.1797-.901.3081-1.649.3081-1.6261 0-1.6515.0522-1.6515 3.1104v2.2871H32.4806v-2.2871c0-3.058-.0249-3.1104-1.6499-3.1104-.7485 0-1.4702-.1284-1.6504-.3081-.2075-.2051-.3101-1.4648-.3101-3.932 0-2.4669-.103-3.7267-.3096-3.9322C28.3799.1284 27.7603 0 27.1417 0c-.8247 0-1.1602.1285-1.3672.4883Zm42.8428 40.1201c2.8887.8984 5.3916 3.3926 6.166 6.168.4385 1.543.3096 4.2158-.2842 5.7832-.6963 1.875-2.6846 4.0098-4.5654 4.9355-1.29.6416-1.7539.7188-3.9209.7188-2.1665 0-2.6309-.0771-3.9204-.7188-1.8843-.9258-3.8691-3.0605-4.5659-4.9355-.5928-1.5674-.7227-4.2402-.2837-5.7832.748-2.7236 3.2495-5.2695 6.0615-6.168 2.0122-.6425 3.3003-.6425 5.313 0Z"/><path fill="#363636" d="M63.794 44.4375c-2.0366.9258-3.5068 3.6494-3.0688 5.7305.7739 3.6768 4.8232 5.5527 7.9956 3.7021 1.9854-1.1582 2.9912-3.5469 2.4512-5.7832-.5684-2.3906-2.7344-4.1377-5.1592-4.1377-.6455.0001-1.6255.2315-2.2188.4883ZM36.0919.1543c-3.9204.668-4.5132 1.1309-4.5132 3.4438 0 1.8247.4639 2.416 2.2681 2.9556 1.5498.4624 7.1724.5142 10.5.1284 6.8608-.8223 11.3218-2.5444 9.6987-3.752-1.2651-.9-4.9023-1.8765-9.0542-2.3901C42.5157.232 36.9952 0 36.0919.1543ZM89.4845.258c-6.3193.5902-11.8643 2.081-11.8643 3.1859 0 1.7222 7.8408 3.4697 15.6299 3.4956 5.8037 0 7.1959-.6421 7.1959-3.3413 0-1.8242-.6187-2.6216-2.3726-3.084C96.4239.1026 92.3985 0 89.4845.258ZM112.776.2833c-1.78.231-3.018.7705-3.43 1.4907-.387.7705-.31 2.9038.154 3.5718.928 1.311 1.652 1.4653 7.068 1.4653 3.662 0 5.802-.1289 7.867-.4883 3.534-.5913 6.603-1.5166 7.248-2.2363.49-.54.49-.54-.233-1.1562-1.341-1.1309-5.958-2.185-11.916-2.6724-3.481-.2832-4.488-.2832-6.758.0254Z"/></svg>